HIERARCHY
ROOT Hips
{
	OFFSET 50.846802 -36.193817 84.736794
	CHANNELS 6 Xposition Yposition Zposition Xrotation Yrotation Zrotation
	JOINT spine
	{
		OFFSET 0.000000 -0.342407 5.954376
		CHANNELS 3 Xrotation Yrotation Zrotation
		JOINT spine1
		{
			OFFSET 0.000000 0.000000 8.856018
			CHANNELS 3 Xrotation Yrotation Zrotation
			JOINT spine2
			{
				OFFSET 0.000000 -0.000004 8.485672
				CHANNELS 3 Xrotation Yrotation Zrotation
				JOINT Neck
				{
					OFFSET 0.000000 -1.038704 21.786308
					CHANNELS 3 Xrotation Yrotation Zrotation
					JOINT Head
					{
						OFFSET 0.000000 0.000000 6.582199
						CHANNELS 3 Xrotation Yrotation Zrotation
						End Site
						{
							OFFSET 0.000000 5.254356 15.932602
						}
					}
				}
				JOINT RightShoulder
				{
					OFFSET -3.573071 0.497524 9.163864
					CHANNELS 3 Xrotation Yrotation Zrotation
					JOINT RightArm
					{
						OFFSET 0.000000 -0.000004 12.019203
						CHANNELS 3 Xrotation Yrotation Zrotation
						JOINT RightArmRoll
						{
							OFFSET 0.000000 0.000000 6.067535
							CHANNELS 3 Xrotation Yrotation Zrotation
							JOINT RightForeArm
							{
								OFFSET 0.000000 -0.000004 17.672592
								CHANNELS 3 Xrotation Yrotation Zrotation
								JOINT RightForeArmRoll
								{
									OFFSET 0.000000 0.000000 6.808716
									CHANNELS 3 Xrotation Yrotation Zrotation
									JOINT RightHand
									{
										OFFSET 0.000000 0.000000 13.663605
										CHANNELS 3 Xrotation Yrotation Zrotation
										End Site
										{
											OFFSET 0.000000 0.000000 0.100006
										}
									}
								}
							}
						}
					}
				}
				JOINT LeftShoulder
				{
					OFFSET 3.573071 0.497524 9.163864
					CHANNELS 3 Xrotation Yrotation Zrotation
					JOINT LeftArm
					{
						OFFSET 0.000000 -0.000004 12.019203
						CHANNELS 3 Xrotation Yrotation Zrotation
						JOINT LeftArmRoll
						{
							OFFSET 0.000000 0.000000 6.067551
							CHANNELS 3 Xrotation Yrotation Zrotation
							JOINT LeftForeArm
							{
								OFFSET 0.000000 -0.000004 17.672607
								CHANNELS 3 Xrotation Yrotation Zrotation
								JOINT LeftForeArmRoll
								{
									OFFSET 0.000000 0.000000 6.808716
									CHANNELS 3 Xrotation Yrotation Zrotation
									JOINT LeftHand
									{
										OFFSET 0.000000 0.000000 13.663605
										CHANNELS 3 Xrotation Yrotation Zrotation
										End Site
										{
											OFFSET 0.000000 0.000000 0.100006
										}
									}
								}
							}
						}
					}
				}
			}
		}
	}
	JOINT RightUpLeg
	{
		OFFSET -5.277740 0.811859 -0.967796
		CHANNELS 3 Xrotation Yrotation Zrotation
		JOINT RightUpLegRoll
		{
			OFFSET 0.000000 0.000000 16.021400
			CHANNELS 3 Xrotation Yrotation Zrotation
			JOINT RightLeg
			{
				OFFSET 0.000000 0.000004 -19.840103
				CHANNELS 3 Xrotation Yrotation Zrotation
				JOINT RightLegRoll
				{
					OFFSET 0.000000 -0.000004 19.904999
					CHANNELS 3 Xrotation Yrotation Zrotation
					JOINT RightFoot
					{
						OFFSET 0.000000 -0.000004 16.567497
						CHANNELS 3 Xrotation Yrotation Zrotation
						JOINT RightToeBase
						{
							OFFSET 0.000000 -0.000004 13.849609
							CHANNELS 3 Xrotation Yrotation Zrotation
							End Site
							{
								OFFSET 0.005871 0.773117 6.707275
							}
						}
					}
				}
			}
		}
	}
	JOINT LeftUpLeg
	{
		OFFSET 5.277740 0.811859 -0.967796
		CHANNELS 3 Xrotation Yrotation Zrotation
		JOINT LeftUpLegRoll
		{
			OFFSET 0.000000 0.000000 16.021500
			CHANNELS 3 Xrotation Yrotation Zrotation
			JOINT LeftLeg
			{
				OFFSET 0.000000 -0.000004 19.840004
				CHANNELS 3 Xrotation Yrotation Zrotation
				JOINT LeftLegRoll
				{
					OFFSET 0.000000 -0.000004 20.089012
					CHANNELS 3 Xrotation Yrotation Zrotation
					JOINT LeftFoot
					{
						OFFSET 0.000000 -0.000004 16.383499
						CHANNELS 3 Xrotation Yrotation Zrotation
						JOINT LeftToeBase
						{
							OFFSET 0.000000 0.000000 13.849594
							CHANNELS 3 Xrotation Yrotation Zrotation
							End Site
							{
								OFFSET -0.026310 0.773113 6.707275
							}
						}
					}
				}
			}
		}
	}
}
MOTION
Frames: 4
Frame Time: 0.041667
51.242302 5.131973 54.274994 -24.081487 -2.269651 4.556707 -0.996772 1.237103 -0.837151 2.027740 2.480168 -1.666483 3.673168 2.460062 -1.695669 40.810776 -1.265932 0.448366 1.392378 -0.558186 0.346860 -30.729974 -103.607413 -33.183026 52.809271 -67.128035 69.337499 0.000004 -0.000005 0.000008 -0.025445 3.638630 -1.990694 -0.000001 0.000004 -3.011609 -5.000167 -7.999929 -0.000000 -23.067302 76.669208 26.753346 89.806790 57.710392 -93.555738 0.000000 -0.000000 0.000000 -0.027486 -3.652439 1.990829 -0.000003 -0.000014 3.011610 -5.000170 7.999930 -0.000006 -66.884190 -175.651497 -5.663509 179.999991 0.000005 -2.124006 82.456202 8.740762 3.529270 0.000000 0.000004 2.863369 65.946679 7.319289 1.294152 25.456957 -7.355613 0.000001 -66.241237 179.516482 4.048942 -0.000005 -0.000004 -2.456230 -95.259849 -7.028995 -3.937273 0.000000 -0.000005 -2.565820 60.121770 -7.863710 -0.603787 25.456861 7.355611 0.000020 
51.236103 5.140965 54.270592 -24.129405 -2.211317 4.555991 -0.982723 1.224260 -0.835988 2.055638 2.454272 -1.664453 3.701055 2.434188 -1.693359 40.806156 -1.280611 0.447703 1.357250 -0.557004 0.344089 -30.843973 -103.604585 -33.289126 52.896926 -67.103508 69.404564 0.000005 -0.000004 0.000007 -0.025448 3.638629 -1.990694 -0.000001 0.000004 -3.011611 -5.000167 -7.999931 -0.000000 -23.005744 76.661183 26.687380 89.830265 57.701247 -93.568640 -0.000001 0.000000 0.000000 -0.027489 -3.652810 1.990829 -0.000005 -0.000013 3.011610 -5.000176 7.999929 -0.000005 -66.832438 -175.695893 -5.612400 179.999991 0.000005 -2.127996 82.458784 8.731306 3.518646 -0.000000 0.000004 2.864411 65.949404 7.319265 1.293267 25.456957 -7.355613 0.000002 -66.207742 179.475474 4.099230 -0.000005 -0.000004 -2.457090 -95.262950 -7.048829 -3.951386 0.000000 -0.000004 -2.567269 60.120664 -7.865606 -0.599877 25.456856 7.355610 0.000021 
51.244904 5.141941 54.271194 -24.179720 -2.150768 4.555409 -0.968260 1.210947 -0.834867 2.084365 2.427425 -1.662478 3.729758 2.407357 -1.691096 40.799729 -1.294669 0.446926 1.323703 -0.556233 0.341351 -30.962306 -103.601252 -33.399424 52.985442 -67.078858 69.472292 0.000003 -0.000005 0.000006 -0.025454 3.638630 -1.990694 0.000001 0.000004 -3.011610 -5.000163 -7.999932 -0.000000 -22.946355 76.653369 26.623715 89.853249 57.691985 -93.581269 0.000002 0.000000 -0.000000 -0.027484 -3.653200 1.990829 -0.000000 -0.000013 3.011610 -5.000171 7.999931 -0.000005 -66.778138 -175.741642 -5.560436 179.999991 0.000005 -2.131997 82.461359 8.721589 3.507806 0.000000 0.000004 2.865530 65.952307 7.319190 1.292357 25.456957 -7.355613 0.000002 -66.172362 179.432717 4.151784 -0.000005 -0.000004 -2.458010 -95.266181 -7.069429 -3.964515 0.000001 -0.000004 -2.568732 60.119578 -7.867545 -0.595877 25.456860 7.355610 0.000022 
51.080208 5.128014 54.247696 -24.231530 -2.088690 4.554946 -0.953494 1.197304 -0.833773 2.113665 2.399909 -1.660537 3.759046 2.379874 -1.688858 40.792089 -1.308292 0.446067 1.291236 -0.555751 0.338639 -31.082186 -103.598192 -33.511138 53.074115 -67.054160 69.540109 0.000002 -0.000004 0.000008 -0.025457 3.638631 -1.990693 -0.000004 0.000005 -3.011610 -5.000168 -7.999930 0.000001 -22.888486 76.645726 26.561721 89.875597 57.682621 -93.593358 0.000001 -0.000001 -0.000001 -0.027483 -3.653598 1.990829 -0.000003 -0.000012 3.011610 -5.000174 7.999930 -0.000005 -66.721960 -175.788907 -5.506707 179.999991 0.000005 -2.136000 82.464077 8.711588 3.496633 0.000000 0.000005 2.866690 65.955339 7.319125 1.291441 25.456953 -7.355614 0.000002 -66.135759 179.388990 4.205209 -0.000005 -0.000004 -2.458960 -95.269425 -7.090624 -3.977702 0.000000 -0.000004 -2.570211 60.118396 -7.869564 -0.591803 25.456856 7.355612 0.000018 
